<?xml version="1.0" encoding="UTF-8"?>
<svg id="svg144" width="211.54" height="150.02" version="1.1" viewBox="0 0 211.54 150.02" xmlns="http://www.w3.org/2000/svg">
 <path id="path34" d="m74.562 87.633c0 1.1758-0.76953 1.6406-1.3867 1.6406-0.8125 0-1.2031-0.57422-1.2031-1.4297v-4.8984h-1.1484v5.3906c0 1.2031 0.67188 1.8164 1.9062 1.8164 0.73828 0 1.4141-0.34766 1.793-0.99219h0.039062v0.85547h1.2188c-0.042969-0.49219-0.070312-0.98047-0.070312-1.4727v-5.5977h-1.1484v4.6875" fill="#231f1f"/>
 <path id="path36" d="m82.77 90.016v-4.9023c0-1.3984-0.37891-2.3086-1.8906-2.3086-0.91016 0-1.4453 0.25-1.8906 1.0508h-0.054687v-0.91016h-1.2188c0.042968 0.48828 0.066406 0.97656 0.066406 1.4688v5.6016h1.1523v-4.1875c0-0.96875 0.17969-2.0859 1.4375-2.0859 0.98047 0 1.2461 0.61719 1.2461 1.3711v4.9023h1.1523" fill="#231f1f"/>
 <path id="path38" d="m88.41 86.191c0 1.4258 0 3.0234-1.2891 3.0234-1.4414 0-1.4414-1.5391-1.4414-2.6016 0-1.8906 0.16797-2.8711 1.4023-2.8711 1.2695 0 1.3281 1.5117 1.3281 2.4492zm0-2.5352h-0.042968c-0.39063-0.55859-0.88281-0.85156-1.5508-0.85156-2.2852 0-2.3398 2.0273-2.3398 3.793 0 3.1094 1.1484 3.5547 2.2812 3.5547 0.74219 0 1.2305-0.32031 1.625-0.98047h0.027344v0.84375h1.1484v-10.109h-1.1484v3.75" fill="#231f1f"/>
 <path id="path40" d="m95.676 90.016v-4.6211h3.5273v-1.1211h-3.5273v-3.25h3.7227v-1.1172h-5.0117v10.109h1.2891" fill="#231f1f"/>
 <path id="path42" d="m102.93 89.215c-1.1914 0-1.4883-0.82422-1.4883-3.1211 0-1.9336 0.60156-2.3516 1.4883-2.3516 0.87891 0 1.4805 0.41797 1.4805 2.3516 0 2.2969-0.29297 3.1211-1.4805 3.1211zm0 0.9375c1.4961 0 2.6836-0.44531 2.6836-3.5703 0-2.0703-0.23828-3.7773-2.6836-3.7773-2.4531 0-2.6914 1.707-2.6914 3.7773 0 3.125 1.1914 3.5703 2.6914 3.5703" fill="#231f1f"/>
 <path id="path44" d="m108.55 82.945h-1.1484v7.0703h1.1484v-4.1719c0-0.95312 0.32422-1.9219 1.5938-1.9219 0.21094 0 0.41016 0.042969 0.61719 0.074219v-1.1914c-1.1172 0-1.7031 0.125-2.1797 1.2031h-0.03125v-1.0625" fill="#231f1f"/>
 <path id="path46" d="m116.5 87.996c0-2.1523-3.5312-2.125-3.5312-3.3711 0-0.61719 0.48047-0.95312 1.0938-0.95312 0.72656 0 1.1211 0.39062 1.1055 1.1328h1.2773c0.097656-1.3984-0.98047-2-2.2422-2-1.9844 0-2.4375 1.1914-2.4375 1.9297 0 2.1172 3.5312 2.1445 3.5312 3.4023 0 0.73047-0.53125 1.0781-1.2227 1.0781-1.1602 0-1.1719-0.95312-1.1719-1.3555h-1.3008c-0.046875 1.6211 0.91016 2.293 2.4336 2.293 1.3984 0 2.4648-0.60156 2.4648-2.1562" fill="#231f1f"/>
 <path id="path48" d="m122.84 85.211c0.070312-1.582-0.75781-2.4062-2.1719-2.4062-2.4492 0-2.6875 1.707-2.6875 3.7773 0 3.125 1.1914 3.5703 2.6875 3.5703 0.78516 0 2.2695-0.50391 2.2266-2.4922h-1.2031c0.039062 1.2773-0.75781 1.5547-1.0234 1.5547-1.1914 0-1.4844-0.82422-1.4844-3.1211 0-1.9336 0.60156-2.3516 1.4844-2.3516 0.43359 0 1.0078 0.30859 0.98047 1.4688h1.1914" fill="#231f1f"/>
 <path id="path50" d="m129.72 90.016v-5.0156c0-1.5938-0.67188-2.1953-1.875-2.1953-0.92578 0-1.457 0.22266-1.918 1.0508h-0.054688v-3.9492h-1.1484v10.109h1.1484v-4.1602c0-1.1914 0.29297-2.1133 1.4375-2.1133 0.98438 0 1.2617 0.61719 1.2617 1.4844v4.7891h1.1484" fill="#231f1f"/>
 <path id="path52" d="m135.52 87.633c0 1.1758-0.76562 1.6406-1.3867 1.6406-0.8125 0-1.2031-0.57422-1.2031-1.4297v-4.8984h-1.1484v5.3906c0 1.2031 0.67188 1.8164 1.9062 1.8164 0.74219 0 1.4102-0.34766 1.7891-0.99219h0.042969v0.85547h1.2188c-0.042969-0.49219-0.070312-0.98047-0.070312-1.4727v-5.5977h-1.1484v4.6875" fill="#231f1f"/>
 <path id="path54" d="m143.72 90.016v-4.9023c0-1.3984-0.37891-2.3086-1.8867-2.3086-0.91016 0-1.4453 0.25-1.8945 1.0508h-0.054687v-0.91016h-1.2148c0.039063 0.48828 0.066406 0.97656 0.066406 1.4688v5.6016h1.1484v-4.1875c0-0.96875 0.18359-2.0859 1.4414-2.0859 0.98047 0 1.2461 0.61719 1.2461 1.3711v4.9023h1.1484" fill="#231f1f"/>
 <path id="path56" d="m149.39 86.441c0 0.98438 0.039063 2.6211-1.3438 2.6211-0.85547 0-1.375-0.53125-1.375-2.8008 0-0.9375 0.042969-2.5039 1.3477-2.5039 1.4414 0 1.3711 1.6367 1.3711 2.6836zm-0.027343-2.6289h-0.027344c-0.32422-0.6875-0.91016-1.0078-1.6523-1.0078-0.57422 0-2.2109 0.20703-2.2109 3.457 0 2.1016 0.375 3.7539 2.293 3.7539 0.61719 0 1.2617-0.32422 1.5547-0.88281h0.042969v1.4688c0 0.72656-0.43359 1.2188-1.2344 1.2188-0.62891 0-1.0625-0.36328-1.0742-1.0234h-1.2891c-0.097656 1.3047 0.96484 1.8906 2.1406 1.8906 1.5547 0 2.6055-0.37891 2.6055-1.9609v-7.7812h-1.1484v0.86719" fill="#231f1f"/>
 <path id="path58" d="m70.32 67.945v0.86719h1.0898v6.2031h1.1484v-6.2031h1.4297v-0.86719h-1.4297v-1.207c0-0.57031 0.21094-1.0898 1.4297-1.0078v-0.82422c-0.16797-0.027344-0.30859-0.042969-0.54688-0.042969-1.0234 0-2.0312 0.28125-2.0312 1.7109v1.3711h-1.0898" fill="#231f1f"/>
 <path id="path60" d="m77.012 65.297h-1.3164v1.457h1.3164zm2.4609 0h-1.3164v1.457h1.3164zm-0.60156 7.3359c0 1.1758-0.76953 1.6406-1.3867 1.6406-0.8125 0-1.2031-0.57813-1.2031-1.4297v-4.8984h-1.1484v5.3906c0 1.2031 0.67188 1.8164 1.9023 1.8164 0.74609 0 1.418-0.34766 1.793-0.99219h0.042969v0.85547h1.2188c-0.042969-0.49219-0.070313-0.98047-0.070313-1.4727v-5.5977h-1.1484v4.6875" fill="#231f1f"/>
 <path id="path62" d="m83.281 67.945h-1.1484v7.0703h1.1484v-4.1719c0-0.95312 0.32031-1.9219 1.5977-1.9219 0.21094 0 0.40234 0.042969 0.61328 0.074219v-1.1914c-1.1211 0-1.707 0.125-2.1836 1.2031h-0.027344v-1.0625" fill="#231f1f"/>
 <path id="path64" d="m90.273 70.281h1.3711c1.3164 0 2.3086 0.28125 2.3086 1.8906 0 0.74219-0.48828 1.7227-1.8594 1.7227h-1.8203zm0-4.2578h1.8203c1.0781 0 1.5547 0.6875 1.5547 1.5273 0 0.98047-0.49219 1.5977-1.5 1.6094h-1.875zm1.9609 8.9922c1.1445 0 3.0352-0.25391 3.0352-2.8438 0-1.3867-0.62891-2.2539-2.0703-2.4219v-0.070312c1.3008-0.29297 1.7344-1.1328 1.7344-2.3945 0-0.19531-0.054688-0.79688-0.40625-1.3438-0.375-0.55859-0.85547-1.0352-2.2539-1.0352h-3.2891v10.109h3.25" fill="#231f1f"/>
 <path id="path66" d="m98.262 67.945h-1.1523v7.0703h1.1523zm-1.2188-1.8086h1.2891v-1.2305h-1.2891v1.2305" fill="#231f1f"/>
 <path id="path68" d="m101.51 64.906h-1.1484v10.109h1.1484v-10.109" fill="#231f1f"/>
 <path id="path70" d="m107.23 71.191c0 1.4258 0 3.0234-1.2891 3.0234-1.4414 0-1.4414-1.5391-1.4414-2.6016 0-1.8906 0.16797-2.8711 1.3984-2.8711 1.2773 0 1.332 1.5117 1.332 2.4492zm0-2.5352h-0.042969c-0.39062-0.55859-0.87891-0.85156-1.5508-0.85156-2.2812 0-2.3398 2.0273-2.3398 3.793 0 3.1094 1.1484 3.5547 2.2812 3.5547 0.74219 0 1.2305-0.32031 1.625-0.98047h0.027344v0.84375h1.1484v-10.109h-1.1484v3.75" fill="#231f1f"/>
 <path id="path72" d="m114.27 72.633c0 1.1758-0.76953 1.6406-1.3867 1.6406-0.8125 0-1.2031-0.57813-1.2031-1.4297v-4.8984h-1.1484v5.3906c0 1.2031 0.67188 1.8164 1.9023 1.8164 0.74219 0 1.418-0.34766 1.793-0.99219h0.042969v0.85547h1.2148c-0.039062-0.49219-0.066406-0.98047-0.066406-1.4727v-5.5977h-1.1484v4.6875" fill="#231f1f"/>
 <path id="path74" d="m122.48 75.016v-4.9023c0-1.3984-0.37891-2.3086-1.8867-2.3086-0.91406 0-1.4453 0.25-1.8906 1.0508h-0.058594v-0.91016h-1.2188c0.042969 0.48828 0.074219 0.97656 0.074219 1.4688v5.6016h1.1445v-4.1875c0-0.96875 0.18359-2.0859 1.4453-2.0859 0.97656 0 1.2422 0.61719 1.2422 1.3711v4.9023h1.1484" fill="#231f1f"/>
 <path id="path76" d="m128.15 71.441c0 0.98438 0.042968 2.6211-1.3438 2.6211-0.85547 0-1.375-0.53125-1.375-2.8008 0-0.9375 0.042968-2.5039 1.3477-2.5039 1.4414 0 1.3711 1.6367 1.3711 2.6836zm-0.027344-2.6289h-0.027344c-0.32422-0.6875-0.91016-1.0078-1.6523-1.0078-0.57422 0-2.2148 0.20703-2.2148 3.457 0 2.1016 0.37891 3.7539 2.2969 3.7539 0.61328 0 1.2578-0.32422 1.5547-0.88281h0.042969v1.4688c0 0.72656-0.4375 1.2188-1.2305 1.2188-0.63281 0-1.0703-0.36328-1.082-1.0234h-1.2891c-0.097656 1.3008 0.96875 1.8906 2.1445 1.8906 1.5547 0 2.6016-0.37891 2.6016-1.9609v-7.7812h-1.1445v0.86719" fill="#231f1f"/>
 <path id="path78" d="m72.156 55.281h1.375c1.3125 0 2.3086 0.28125 2.3086 1.8906 0 0.74219-0.49219 1.7227-1.8633 1.7227h-1.8203zm0-4.2578h1.8203c1.0781 0 1.5547 0.6875 1.5547 1.5273 0 0.98047-0.49219 1.5977-1.5 1.6094h-1.875zm1.957 8.9922c1.1523 0 3.043-0.25391 3.043-2.8438 0-1.3867-0.62891-2.2539-2.0742-2.4219v-0.070312c1.3047-0.29297 1.7383-1.1328 1.7383-2.3945 0-0.19531-0.054687-0.79688-0.40625-1.3438-0.37891-0.55859-0.85547-1.0352-2.2539-1.0352h-3.293v10.109h3.2461" fill="#231f1f"/>
 <path id="path80" d="m82.566 57.633c0 1.1758-0.76953 1.6406-1.3867 1.6406-0.8125 0-1.2031-0.57813-1.2031-1.4297v-4.8984h-1.1484v5.3906c0 1.2031 0.67188 1.8164 1.9023 1.8164 0.74219 0 1.418-0.34766 1.793-0.99219h0.042968v0.85547h1.2148c-0.039062-0.49219-0.066406-0.98047-0.066406-1.4727v-5.5977h-1.1484v4.6875" fill="#231f1f"/>
 <path id="path82" d="m90.773 60.016v-4.9023c0-1.3984-0.37891-2.3086-1.8906-2.3086-0.91406 0-1.4414 0.25-1.8906 1.0508h-0.058594v-0.91016h-1.2148c0.042969 0.48828 0.070312 0.97656 0.070312 1.4688v5.6016h1.1445v-4.1875c0-0.96875 0.18359-2.0859 1.4453-2.0859 0.97656 0 1.2422 0.61719 1.2422 1.3711v4.9023h1.1523" fill="#231f1f"/>
 <path id="path84" d="m96.414 56.191c0 1.4258 0 3.0234-1.2891 3.0234-1.4414 0-1.4414-1.5391-1.4414-2.6016 0-1.8906 0.16797-2.8711 1.4023-2.8711 1.2695 0 1.3281 1.5117 1.3281 2.4492zm0-2.5352h-0.042968c-0.39062-0.55859-0.88281-0.85156-1.5508-0.85156-2.2852 0-2.3398 2.0273-2.3398 3.793 0 3.1094 1.1484 3.5547 2.2812 3.5547 0.74219 0 1.2305-0.32031 1.625-0.98047h0.027343v0.84375h1.1484v-10.109h-1.1484v3.75" fill="#231f1f"/>
 <path id="path86" d="m100.53 55.98c0.015625-1.957 0.61719-2.3086 1.3477-2.3086 0.83984 0 1.4141 0.25 1.4141 2.3086zm3.9805 0.87109v-0.60547c0-2.3359-0.50781-3.4414-2.5234-3.4414-2.4492 0-2.6875 1.707-2.6875 3.7773 0 3.125 1.1914 3.5703 2.6875 3.5703 1.4883 0 2.4531-0.71094 2.4648-2.2812h-1.2578c-0.042968 0.71484-0.44922 1.3438-1.2305 1.3438-0.89844 0-1.4336-0.39062-1.4336-2.3633h3.9805" fill="#231f1f"/>
 <path id="path88" d="m110.84 57.996c0-2.1523-3.5312-2.125-3.5312-3.3711 0-0.61719 0.47656-0.95312 1.0938-0.95312 0.73047 0 1.1211 0.39062 1.1055 1.1328h1.2734c0.10156-1.3984-0.98047-2-2.2422-2-1.9844 0-2.4336 1.1914-2.4336 1.9297 0 2.1172 3.5273 2.1445 3.5273 3.4023 0 0.73047-0.53125 1.0781-1.2148 1.0781-1.1602 0-1.1797-0.95312-1.1797-1.3555h-1.3008c-0.039063 1.6211 0.91016 2.293 2.4375 2.293 1.3984 0 2.4648-0.60156 2.4648-2.1562" fill="#231f1f"/>
 <path id="path90" d="m117.24 60.016v-4.7617c0-0.26562 0.054687-0.96484 0.39453-1.2461 0.30469-0.25 0.42969-0.26562 0.86719-0.26562 0.92578 0 1.1211 0.65625 1.1211 1.3711v4.9023h1.1445v-5.3789c0-1.6641-1.1914-1.832-1.9297-1.832-0.64453 0-1.2891 0.15234-1.6797 0.91016-0.26953-0.64453-1.0117-0.91016-1.6523-0.91016-0.82422 0-1.4297 0.26562-1.7617 1.0195h-0.03125v-0.87891h-1.2188c0.042968 0.48828 0.070312 0.97656 0.070312 1.4688v5.6016h1.1484v-4.7617c0-0.26562 0.054687-0.6875 0.26562-1.0391 0.16797-0.26562 0.64844-0.47266 0.99609-0.47266 0.92188 0 1.1172 0.65625 1.1172 1.3711v4.9023h1.1484" fill="#231f1f"/>
 <path id="path92" d="m123.95 52.945h-1.1445v7.0703h1.1445zm-1.2148-1.8086h1.2891v-1.2305h-1.2891v1.2305" fill="#231f1f"/>
 <path id="path94" d="m131.02 60.016v-4.9023c0-1.3984-0.375-2.3086-1.8867-2.3086-0.91406 0-1.4453 0.25-1.8945 1.0508h-0.054687v-0.91016h-1.2148c0.039062 0.48828 0.066406 0.97656 0.066406 1.4688v5.6016h1.1484v-4.1875c0-0.96875 0.18359-2.0859 1.4414-2.0859 0.98047 0 1.2461 0.61719 1.2461 1.3711v4.9023h1.1484" fill="#231f1f"/>
 <path id="path96" d="m134.2 52.945h-1.1484v7.0703h1.1484zm-1.2188-1.8086h1.2852v-1.2305h-1.2852v1.2305" fill="#231f1f"/>
 <path id="path98" d="m140.72 57.996c0-2.1523-3.5312-2.125-3.5312-3.3711 0-0.61719 0.47656-0.95312 1.0898-0.95312 0.73047 0 1.125 0.39062 1.1055 1.1328h1.2773c0.097656-1.3984-0.98047-2-2.2383-2-1.9883 0-2.4375 1.1914-2.4375 1.9297 0 2.1172 3.5273 2.1445 3.5273 3.4023 0 0.73047-0.53125 1.0781-1.2148 1.0781-1.168 0-1.1797-0.95312-1.1797-1.3555h-1.3008c-0.039062 1.6211 0.91016 2.293 2.4375 2.293 1.3945 0 2.4648-0.60156 2.4648-2.1562" fill="#231f1f"/>
 <path id="path100" d="m141.48 52.945v0.86719h1.1602v5.0273c0 0.80859 0.48828 1.2578 1.582 1.2578 0.37891 0 0.75391-0.082031 1.1328-0.11328v-0.87891c-0.25 0.027343-0.43359 0.054687-0.51562 0.054687-1.0469 0-1.0469-0.57422-1.0469-1.0234v-4.3242h1.5352v-0.86719h-1.5352v-1.875l-1.1523 0.51563v1.3594h-1.1602" fill="#231f1f"/>
 <path id="path102" d="m147.53 55.98c0.011718-1.957 0.61328-2.3086 1.3438-2.3086 0.84375 0 1.4141 0.25 1.4141 2.3086zm3.9766 0.87109v-0.60547c0-2.3359-0.5-3.4414-2.5195-3.4414-2.4531 0-2.6875 1.707-2.6875 3.7773 0 3.125 1.1875 3.5703 2.6875 3.5703 1.4805 0 2.4492-0.71094 2.4609-2.2812h-1.2578c-0.042969 0.71484-0.44531 1.3438-1.2305 1.3438-0.89844 0-1.4297-0.39062-1.4297-2.3633h3.9766" fill="#231f1f"/>
 <path id="path104" d="m154.34 52.945h-1.1445v7.0703h1.1445v-4.1719c0-0.95312 0.32422-1.9219 1.5977-1.9219 0.21094 0 0.40625 0.042969 0.61719 0.074219v-1.1914c-1.1211 0-1.707 0.125-2.1836 1.2031h-0.03125v-1.0625" fill="#231f1f"/>
 <path id="path106" d="m158.93 52.945h-1.1484v7.0703h1.1484zm-1.2148-1.8086h1.2891v-1.2305h-1.2891v1.2305" fill="#231f1f"/>
 <path id="path108" d="m164.7 57.633c0 1.1758-0.76953 1.6406-1.3867 1.6406-0.8125 0-1.2031-0.57813-1.2031-1.4297v-4.8984h-1.1445v5.3906c0 1.2031 0.66797 1.8164 1.9023 1.8164 0.74219 0 1.4141-0.34766 1.793-0.99219h0.039062v0.85547h1.2188c-0.042968-0.49219-0.070312-0.98047-0.070312-1.4727v-5.5977h-1.1484v4.6875" fill="#231f1f"/>
 <path id="path110" d="m172.58 60.016v-4.7617c0-0.26562 0.054687-0.96484 0.39062-1.2461 0.30859-0.25 0.43359-0.26562 0.87109-0.26562 0.92188 0 1.1211 0.65625 1.1211 1.3711v4.9023h1.1484v-5.3789c0-1.6641-1.1914-1.832-1.9336-1.832-0.64453 0-1.2891 0.15234-1.6797 0.91016-0.26953-0.64453-1.0117-0.91016-1.6562-0.91016-0.82422 0-1.4258 0.26562-1.7617 1.0195h-0.027344v-0.87891h-1.2188c0.046875 0.48828 0.070313 0.97656 0.070313 1.4688v5.6016h1.1484v-4.7617c0-0.26562 0.054688-0.6875 0.26562-1.0391 0.16797-0.26562 0.64453-0.47266 0.99609-0.47266 0.91797 0 1.1172 0.65625 1.1172 1.3711v4.9023h1.1484" fill="#231f1f"/>
 <path id="path112" d="m57.582 100.02h4.4297v25h-4.4297v-25" fill="#f1ce04"/>
 <path id="path114" d="m57.582 74.926h4.4297v25.09h-4.4297v-25.09" fill="#ec1b24"/>
 <path id="path116" d="m57.582 50.016h4.4297v25h-4.4297v-25" fill="#231f1f"/>
 <path id="path118" d="m32.293 75.02m0 0.011719m-0.003907 0m0-0.015625m11.477-20.773c0-1.4258-1.0352-2.5508-1.3984-2.8711l-0.26563 0.0625c0.39063 0.47266 1.0742 1.2656 1.0742 2.3125 0 2.0664-2.1836 3.8633-4.6758 3.8945 0.019531 0.21484 0.019531 0.40234 0.019531 0.5625 0 0.29297-0.019531 0.58203-0.054687 0.86328 2.8242-0.050781 5.3008-2.3477 5.3008-4.8242zm-3.8984 17.102c-1.207 0-1.4688-0.125-1.7852-0.125-0.20312 0-0.39844 0.019531-0.39844 0.30859 0 0.20312 0.22266 0.49609 0.42969 0.64844 0.28516-0.28125 0.67188-0.34375 1.3008-0.34375 0.29688 0 0.69531 0.058594 0.87109 0.082031-0.023437 0.17188-0.058594 0.39844-0.058594 0.71484 0 0.16406 0.007813 0.35938 0.007813 0.56641 0 0.71094-0.10547 1.0898-0.35156 1.375 0.050782 0.03125 0.19531 0.0625 0.28125 0.0625 0.46094 0 0.57813-0.23828 0.57813-1.4375 0-0.36328 0.03125-0.69922 0.03125-0.78516 0.64453 0.49609 1.3047 1.375 1.3047 2.0078 0.20703-0.10547 0.45703-0.42578 0.45703-0.66406 0-0.43359-0.72266-1.0781-1.4922-1.8555 0.10938-0.027344 0.39453-0.10938 0.62891-0.10938 0.60156 0 1.0898 0.10156 1.3711 0.43359 0.11328-0.12109 0.20703-0.48828 0.20703-0.69531 0-0.35938-0.20703-0.34766-0.35547-0.34766-0.64453 0-1.4375 0.097656-2.0039 0.19141-0.20703-0.27344-1.5234-2.0547-1.8633-3.0039-0.10156-0.035157-0.17578-0.0625-0.33594-0.0625-0.32031 0-0.40234 0.22266-0.48047 0.52344 0.72266 0.87891 1.4219 1.8359 1.6562 2.5156zm-7.2031-2.5156c-0.082031-0.30078-0.16406-0.52344-0.48047-0.52344-0.16406 0-0.23828 0.027343-0.33594 0.0625-0.34375 0.94922-1.6562 2.7305-1.8672 3.0039-0.5625-0.09375-1.3594-0.19141-2-0.19141-0.15234 0-0.35938-0.011719-0.35938 0.34766 0 0.20703 0.09375 0.57422 0.20703 0.69531 0.28125-0.33203 0.76953-0.43359 1.375-0.43359 0.23438 0 0.51562 0.082032 0.625 0.10938-0.76953 0.77734-1.4922 1.4219-1.4922 1.8555 0 0.23828 0.25 0.55859 0.46094 0.66406 0-0.63281 0.65625-1.5117 1.3008-2.0078 0 0.085938 0.03125 0.42188 0.03125 0.78516 0 1.1992 0.11719 1.4375 0.58203 1.4375 0.082031 0 0.22656-0.03125 0.28125-0.0625-0.25-0.28516-0.35156-0.66406-0.35156-1.375 0-0.20703 0.007813-0.40234 0.007813-0.56641 0-0.31641-0.039063-0.54297-0.0625-0.71484 0.17578-0.023437 0.57812-0.082031 0.87109-0.082031 0.62891 0 1.0195 0.0625 1.3047 0.34375 0.20312-0.15234 0.42969-0.44531 0.42969-0.64844 0-0.28906-0.19531-0.30859-0.40234-0.30859-0.31641 0-0.57812 0.125-1.7852 0.125 0.23828-0.67969 0.93359-1.6367 1.6602-2.5156zm-4.9648-15.082c0-1.0469 0.68359-1.8398 1.0703-2.3125l-0.26172-0.0625c-0.36719 0.32031-1.4023 1.4453-1.4023 2.8711 0 2.4922 2.5117 4.8086 5.3633 4.8281-0.027344-0.27344-0.046875-0.55859-0.046875-0.86719 0-0.19141 0.007813-0.38281 0.023437-0.55859-2.5234 0-4.7461-1.8125-4.7461-3.8984zm7.6641-1.918c0.13281-0.30078 0.30469-0.65625 0.30469-1.0469 0-1.082-0.89453-1.5938-2.0938-1.5938-0.61719 0-0.92969 0.19922-0.92969 0.39844 0 0.19922 0.20312 0.64062 0.28125 0.77344 0.22266-0.097656 0.625-0.21484 0.85547-0.21484 0.82422 0 1.4414 0.92578 1.582 1.6836zm0.59375-1.3828c0.69922 0.13672 1.1797-0.76172 0.51172-0.92187 0.089844 0.29687-0.35547 0.50781-0.35547 0.50781s-0.17188-0.39844 0.050781-0.625c-0.41016-0.19922-0.51172 0.042969-0.51953 0.29688 0.16016 0.21484 0.26172 0.46484 0.3125 0.74219zm2.2695 6.1406c0.11328 0.007812 0.21875 0.011718 0.33203 0.011718 1.9727 0 3.9336-1.2734 3.9336-2.9102 0-0.875-0.39453-1.4844-0.87891-2.1602-0.28516 0.046875-0.54297 0.074218-0.74609 0.074218-0.89453 0-1.3828-0.48047-1.4141-0.95312 0-0.42188 0.34375-0.74219 0.87891-0.74219 0.82812 0 2.3438 0.77734 3.8711 0.77734-0.15234 0.11328-0.40234 0.23047-0.70312 0.34375 0.89453 0.80469 1.4922 1.8867 1.7188 3.0391l2.3398 3.7422c0.39453 0.625 1.2227 1.8555 2.4727 2.8125-1.5078 0-2.5156 0.035156-3.793-1.9883l-1.1992-1.918c-0.085937 0.25-0.19531 0.49219-0.32422 0.72656l2.3828 3.8164c0.39453 0.63281 1.2188 1.8516 2.4766 2.8164-1.5156 0-2.5156 0.035156-3.7969-1.9883l-2.0508-3.2852c-0.15234 0.16016-0.31641 0.32031-0.48828 0.47656l2.8984 4.6328c0.39844 0.63672 1.2148 1.8477 2.4727 2.8125-1.5117 0-2.5156 0.035156-3.793-1.9883l-2.8242-4.5156c-0.1875 0.11719-0.375 0.23047-0.57031 0.33984l3.4414 5.5117c0.39844 0.63281 1.2148 1.8477 2.4766 2.8125-1.5117 0-2.5156 0.035157-3.793-1.9883l-3.5508-5.6797c-0.20703 0.082031-0.42188 0.16016-0.64062 0.22656l4.0117 6.418c0.39062 0.62109 1.2266 1.8555 2.4727 2.8125-1.5117 0-2.5156 0.035156-3.793-1.9883l-4.2734-6.8398-0.12891 0.023438c-0.11719 0.37109-0.19531 0.71484-0.19531 1.0586 0 2.1484 1.4062 4.0469 3.1016 5.5117-0.10938 0.046875-0.29688 0.066406-0.47266 0.066406-0.34766 0-0.57422-0.023437-0.73438-0.050781 0.39453 0.89453 1.2344 2.043 1.6602 2.6406 0.55469-0.10156 1.3594-0.17969 1.8906-0.17969 0.55078 0 0.60938 0.32422 0.60938 0.61328 0 0.5-0.23438 0.90234-0.50391 1.125-0.10156-0.25781-0.30859-0.60156-1.3281-0.60156l-0.10547 0.003907c0.30078 0.33594 1.2344 1.0898 1.2344 1.6992 0 0.40234-0.44141 1.0039-1.0234 1.0039 0.035156-0.12891 0.027344-0.25 0.027344-0.33984 0-0.49219-0.43359-1.0664-0.80078-1.4688 0.007813 0.12109 0.003906 0.10547 0.003906 0.24609 0 1.1641-0.10547 1.6992-0.84375 1.6992-0.36328 0-0.61328-0.19922-0.69922-0.25781 0.48047-0.44141 0.50391-0.79297 0.50391-1.4414l-0.003906-0.56641c0-0.14844 0.003906-0.34766 0.023437-0.48828-0.26562-0.039063-0.36719-0.035156-0.57422-0.035156 0 0-1.0508-0.085938-1.3008 0.46094-0.28516-0.26172-0.69922-0.62891-0.69922-1.0391 0-0.26953 0.125-0.57422 0.66797-0.57422 0.20312 0 0.84766 0.12891 1.3867 0.12891-0.14453-0.32422-0.78906-1.2656-1.3477-1.9492-0.082032 0.26172-0.21484 0.55078-0.50781 0.78516-0.039062-0.44141-0.29688-1.8281-0.98438-2.6406-0.082031 0.54688-0.19141 1.1133-0.19141 2.3008 0 2.8906 0.69531 5.0273 2.1719 5.4375-0.19141 0.33203-0.59766 0.63281-1.0195 0.63281-0.53906 0-0.83203-0.60938-1.1328-1.1875-0.15625 0.42578-0.58594 1.4688-1.0234 1.4688-0.42969 0-0.85938-1.043-1.0195-1.4688-0.29687 0.57812-0.58984 1.1875-1.1328 1.1875-0.42188 0-0.82812-0.30078-1.0195-0.63281 1.4766-0.41016 2.1719-2.5469 2.1719-5.4375 0-1.1875-0.10547-1.7539-0.1875-2.3008-0.6875 0.8125-0.94531 2.1992-0.98438 2.6406-0.29297-0.23438-0.42578-0.52344-0.51172-0.78516-0.55859 0.68359-1.2031 1.625-1.3477 1.9492 0.53906 0 1.1836-0.12891 1.3867-0.12891 0.54297 0 0.67188 0.30469 0.67188 0.57422 0 0.41016-0.41797 0.77734-0.69922 1.0391-0.25391-0.54688-1.3047-0.46094-1.3047-0.46094-0.20312 0-0.30859-0.003907-0.57422 0.035156 0.023438 0.14062 0.027344 0.33984 0.023438 0.48828l-0.003906 0.56641c0 0.64844 0.023437 1 0.50391 1.4414-0.082031 0.058593-0.33203 0.25781-0.69531 0.25781-0.74219 0-0.84766-0.53516-0.84766-1.6992 0-0.14062-0.003906-0.125 0.007813-0.24609-0.37109 0.40234-0.80469 0.97656-0.80469 1.4688 0 0.089843-0.007812 0.21094 0.027344 0.33984-0.57812 0-1.0195-0.60156-1.0195-1.0039 0-0.60938 0.93359-1.3633 1.2305-1.6992l-0.10156-0.003907c-1.0234 0-1.2305 0.34375-1.332 0.60156-0.26953-0.22266-0.50391-0.625-0.50391-1.125 0-0.28906 0.0625-0.61328 0.61328-0.61328 0.52734 0 1.3359 0.078126 1.8867 0.17969 0.42578-0.59766 1.2656-1.7461 1.6602-2.6406-0.16016 0.027344-0.38281 0.050781-0.73438 0.050781-0.17188 0-0.36328-0.019531-0.46875-0.066406 1.6914-1.4648 3.1016-3.3633 3.1016-5.5117 0-0.34375-0.082031-0.6875-0.19922-1.0586l-0.12891-0.023438-4.2695 6.8398c-1.2812 2.0234-2.2852 1.9883-3.7969 1.9883 1.2461-0.95703 2.082-2.1914 2.4727-2.8125l4.0117-6.418c-0.21875-0.066406-0.42969-0.14453-0.64062-0.22656l-3.5469 5.6797c-1.2812 2.0234-2.2852 1.9883-3.793 1.9883 1.2578-0.96484 2.0742-2.1797 2.4727-2.8125l3.4453-5.5117c-0.19531-0.10938-0.38672-0.22266-0.57422-0.33984l-2.8242 4.5156c-1.2773 2.0234-2.2773 1.9883-3.793 1.9883 1.2617-0.96484 2.0781-2.1758 2.4766-2.8125l2.8945-4.6328c-0.17187-0.15625-0.33203-0.31641-0.48437-0.47656l-2.0547 3.2852c-1.2773 2.0234-2.2812 1.9883-3.793 1.9883 1.2539-0.96484 2.0781-2.1836 2.4766-2.8164l2.3789-3.8164c-0.125-0.23438-0.23438-0.47656-0.32422-0.72656l-1.1992 1.918c-1.2773 2.0234-2.2812 1.9883-3.793 1.9883 1.2539-0.95703 2.082-2.1875 2.4766-2.8125l2.3359-3.7422c0.22656-1.1523 0.82422-2.2344 1.7188-3.0391-0.29688-0.11328-0.55078-0.23047-0.69922-0.34375 1.5273 0 3.0391-0.77734 3.8672-0.77734 0.53906 0 0.88281 0.32031 0.88281 0.74219-0.035156 0.47266-0.51953 0.95312-1.4141 0.95312-0.20703 0-0.46484-0.027343-0.75-0.074218-0.48437 0.67578-0.875 1.2852-0.875 2.1602 0 1.6367 1.957 2.9102 3.9336 2.9102 0.10938 0 0.21875-0.003906 0.32812-0.011718 0.39062-1.3242 1.2266-2.1953 1.8906-3.0469-0.79688-0.28906-1.6875-1.0469-1.6875-1.3906 0.10156-0.058594 1.6289 0.42187 1.7891 0.46484 0.03125 0.007813 0.066406 0.011719 0.10156 0 0.1875-0.058593 0.34375-0.32812 0.34375-0.35547-0.16406-0.027343-1.125-0.15234-1.7812-0.39062-0.49609-0.18359-0.75-0.51172-0.75-0.64063 0.16016-0.023437 0.76953 0.29297 1.6602 0.29297 0.32812 0 0.39062-0.011719 0.71875-0.050781-0.23047-0.54688-0.66016-1.0117-1.1484-1.0117-0.19531 0-0.62109 0.125-0.98047 0.30078-0.25-0.38672-0.46484-0.89453-0.46484-1.1719 0-0.32813 0.32031-0.71484 1.2383-0.71484 0.25391 0 0.49609 0.023437 0.71484 0.066406 0.17969 0.03125 0.32813 0.074219 0.49219 0.13672-0.011719-0.023438-0.019531-0.070313-0.019531-0.11719 0-0.125 0.11328-0.26172 0.54297-0.26172 0.75391 0 1.5273 0.25 2.4727 0.25 0.24609 0 0.41016-0.007812 0.55469-0.066406-0.0625 0.1875-0.32812 0.46484-0.57031 0.6875 0.14844 0.20703 0.53906 0.70312 0.53906 1.5039 0 1.2891-0.84766 2.3516-0.84766 3.6523 0 0.77734 0.59375 1.457 0.77344 1.8633" fill="#231f1f"/>
 <path id="path120" d="m73.883 20.387c0-0.74219-0.30469-1.1484-1.1211-1.1484-0.25391 0-1.1641 0.042969-1.1641 1.3672v2.1328c0 1.3828 0.40234 1.7344 1.1641 1.7344 0.57812 0 0.96094-0.15625 1.1289-0.28125v-1.8906h-1.1641v-0.69922h1.9688v3.0742c-0.51562 0.27734-1.1172 0.46875-1.9336 0.46875-1.3398 0-1.9844-0.69141-1.9844-2.4414v-2.0703c0-1.2617 0.64453-2.0664 1.9844-2.0664 1.3672 0 2.0156 0.5 1.9609 1.8203h-0.83984" fill="#231f1f"/>
 <path id="path122" d="m76.203 25.016v-6.3203h3.2539v0.70313h-2.4492v2.0273h2.2734v0.70312h-2.2734v2.1875h2.5v0.69922h-3.3047" fill="#231f1f"/>
 <path id="path124" d="m80.516 25.016v-6.3203h3.1328v0.70313h-2.3281v2.0273h2.207v0.70312h-2.207v2.8867h-0.80469" fill="#231f1f"/>
 <path id="path126" d="m84.434 22.703v-2.0703c0-1.2617 0.64844-2.0664 1.9883-2.0664s1.9844 0.80469 1.9844 2.0664v2.0703c0 1.75-0.64453 2.4414-1.9844 2.4414s-1.9883-0.69141-1.9883-2.4414zm1.6367-4.75h-0.82031v-0.91016h0.82031zm1.5156 4.7852v-2.1328c0-1.3242-0.91016-1.3672-1.1641-1.3672s-1.1641 0.042969-1.1641 1.3672v2.1328c0 1.3828 0.40234 1.7344 1.1641 1.7344s1.1641-0.35156 1.1641-1.7344zm0.023437-4.7852h-0.82031v-0.91016h0.82031v0.91016" fill="#231f1f"/>
 <path id="path128" d="m90.594 22.109v2.9062h-0.80469v-6.3203h2.1797c1.1211 0 1.5117 0.78906 1.5117 1.5781 0 0.74219-0.41016 1.3125-1.1523 1.4414v0.019531c0.72656 0.11328 0.98828 0.35938 1.0312 1.625 0.007813 0.27344 0.097656 1.2617 0.21875 1.6562h-0.83984c-0.22656-0.4375-0.17578-1.2617-0.24609-2.1016-0.058594-0.76953-0.68359-0.80469-0.95313-0.80469zm0-0.69922h1.207c0.57812 0 0.85938-0.5 0.85938-1.0508 0-0.45312-0.22656-0.96094-0.85156-0.96094h-1.2148v2.0117" fill="#231f1f"/>
 <path id="path130" d="m94.691 18.695h1.9414c0.80469 0 1.3828 0.28906 1.6992 0.96484 0.25391 0.53125 0.27734 1.793 0.27734 1.9922 0 1.3516-0.12109 2.1289-0.38672 2.5469-0.33984 0.54297-0.97656 0.81641-2.0781 0.81641h-1.4531zm0.80469 5.6211h0.76172c1.1172 0 1.5273-0.42188 1.5273-1.8906v-1.2773c0-1.2812-0.39062-1.75-1.2305-1.75h-1.0586v4.918" fill="#231f1f"/>
 <path id="path132" d="m100.02 25.016v-6.3203h3.2539v0.70313h-2.4492v2.0273h2.2734v0.70312h-2.2734v2.1875h2.5v0.69922h-3.3047" fill="#231f1f"/>
 <path id="path134" d="m105.18 22.109v2.9062h-0.80859v-6.3203h2.1797c1.1211 0 1.5117 0.78906 1.5117 1.5781 0 0.74219-0.41016 1.3125-1.1523 1.4414v0.019531c0.72266 0.11328 0.98828 0.35938 1.0312 1.625 0.007813 0.27344 0.097657 1.2617 0.21875 1.6562h-0.83984c-0.22656-0.4375-0.17578-1.2617-0.24609-2.1016-0.058594-0.76953-0.68359-0.80469-0.95312-0.80469zm0-0.69922h1.2031c0.57812 0 0.85938-0.5 0.85938-1.0508 0-0.45312-0.22656-0.96094-0.85156-0.96094h-1.2109v2.0117" fill="#231f1f"/>
 <path id="path136" d="m112.8 18.695v0.70313h-1.6602v5.6172h-0.80469v-5.6172h-1.6641v-0.70313h4.1289" fill="#231f1f"/>
 <path id="path138" d="m117.77 25.016h-0.96484l-1.8281-6.3203h0.875l1.4453 5.5586h0.015625l1.4805-5.5586h0.82031l-1.8438 6.3203" fill="#231f1f"/>
 <path id="path140" d="m120.41 22.703v-2.0703c0-1.2617 0.64844-2.0664 1.9883-2.0664 1.3359 0 1.9844 0.80469 1.9844 2.0664v2.0703c0 1.75-0.64844 2.4414-1.9844 2.4414-1.3398 0-1.9883-0.69141-1.9883-2.4414zm3.1484 0.035156v-2.1328c0-1.3242-0.90625-1.3672-1.1602-1.3672s-1.1641 0.042969-1.1641 1.3672v2.1328c0 1.3828 0.40234 1.7344 1.1641 1.7344 0.75781 0 1.1602-0.35156 1.1602-1.7344" fill="#231f1f"/>
 <path id="path142" d="m126.55 25.016h-0.75v-6.3203h1.3008l1.5938 5.3047h0.019532l1.6094-5.3047h1.3281v6.3203h-0.80469v-5.6172h-0.019531l-1.7656 5.6172h-0.76172l-1.7305-5.6172h-0.019531v5.6172" fill="#231f1f"/>
</svg>
