<?xml version="1.0" encoding="UTF-8"?>
<!-- Generator: Adobe Illustrator 16.0.0, SVG Export Plug-In . SVG Version: 6.00 Build 0)  -->
<svg id="Capa_1" width="1477" height="465" version="1.1" viewBox="0 0 1477 465" xml:space="preserve" xmlns="http://www.w3.org/2000/svg">
<g id="g4" fill="current">
	<path id="path2" d="m685.29 92.013c-70.835 0-128.46 54.487-128.46 121.46 0 26.974 18.218 70.952 55.692 134.45 26.508 44.908 52.579 82.354 53.675 83.925l19.096 27.368 19.095-27.367c1.0962-1.5724 27.169-39.017 53.674-83.925 37.476-63.495 55.692-107.47 55.692-134.45 8.4e-4 -66.974-57.627-121.46-128.46-121.46zm0 183.6c-36.776 0-66.59-28.188-66.59-62.96 0-34.772 29.814-62.96 66.59-62.96s66.59 28.188 66.59 62.96c0 34.772-29.815 62.96-66.59 62.96z" stroke-width=".80937"/>
<g id="text3736" aria-label="Ge"><path id="path40518" d="m140.1 320.55q-39.258 0-69.336-17.969-29.883-17.969-46.68-52.539-16.797-34.766-16.797-83.203 0-49.609 18.945-85.938 18.945-36.523 52.734-55.859 33.789-19.336 77.539-19.336 35.547 0 62.109 11.719 26.562 11.719 43.945 32.617 3.7109 4.4922 5.6641 10.547 1.9531 6.0547 1.9531 12.305 0 9.375-4.8828 17.578-4.6875 8.0078-12.891 12.891-8.0078 4.6875-17.383 4.6875-9.7656 0-17.969-4.8828-8.2031-5.0781-12.891-13.086-7.4219-13.086-18.945-19.727t-28.711-6.6406q-19.727 0-35.547 10.352-15.82 10.352-25.195 32.422-9.1797 22.07-9.1797 55.664 0 33.789 9.375 56.055 9.375 22.266 25 33.008 15.625 10.547 34.766 10.547 20.117 0 33.984-8.2031 14.062-8.2031 21.094-21.68t7.0312-28.906v-3.3203h-41.602q-7.0312 0-13.281-3.5156-6.0547-3.7109-9.7656-9.7656-3.5156-6.25-3.5156-13.477 0-7.0312 3.5156-13.086 3.7109-6.0547 9.7656-9.5703 6.25-3.7109 13.281-3.7109h77.539q16.602 0 25.195 8.7891 8.7891 8.5938 8.7891 25.195v105.66q0 8.3984-4.2969 15.625-4.1016 7.0312-11.328 11.328-7.2266 4.1016-15.625 4.1016-11.328 0-19.922-7.0312-8.5938-7.2266-10.742-18.164l-2.1484-10.742h-1.9531q-13.477 19.922-32.422 29.688-18.945 9.5703-49.219 9.5703z"/><path id="path40520" d="m428.19 318.98q-32.812 0-58.984-14.062-25.977-14.062-40.82-39.648-14.648-25.781-14.648-59.57 0-33.203 13.672-59.18 13.867-25.977 39.453-40.625 25.586-14.648 59.766-14.648 33.789 0 58.594 14.062 24.805 13.867 37.695 36.523 12.891 22.461 12.891 47.852 0 18.164-7.2266 26.758-7.2266 8.3984-25.586 8.3984h-117.97q2.1484 18.75 14.062 30.273 11.914 11.328 30.664 11.328 11.328 0 18.359-3.5156 7.2266-3.7109 13.672-9.9609 4.8828-4.8828 9.9609-7.6172 5.2734-2.9297 12.109-2.9297 8.0078 0 14.844 4.1016 7.0312 4.1016 10.938 11.328 4.1016 7.0312 4.1016 15.43 0 13.867-11.914 24.023-10.938 9.1797-31.055 15.43-19.922 6.25-42.578 6.25zm35.938-137.7q-0.78125-18.945-11.328-29.883-10.547-10.938-27.344-10.938-16.797 0-27.344 10.938-10.547 10.742-12.695 29.883z"/></g><path id="path33773" d="m1145.9 94.094c-14.987 0.19353-30.069 2.9225-43.785 9.093-13.423 5.953-25.465 15.092-34.536 26.663-10.277 12.985-17.134 28.5-20.603 44.651-0.8035 3.6726-1.4266 7.4432-1.9185 11.094-1.0472 7.9702-1.4285 15.929-1.3382 23.942 0.2005 16.149 2.392 32.619 8.0923 47.88 1.1726 3.1332 2.5729 6.3689 4.0823 9.4472 0.2513 0.48825 0.5711 1.1506 0.8522 1.6865 5.8416 11.384 14.004 21.687 24.319 29.331 2.6899 2.0248 5.6547 3.9302 8.5092 5.5309 1.4089 0.78246 2.8205 1.5298 4.3275 2.2558 2.4614 1.1936 5.1358 2.312 7.6115 3.2158 5.7594 2.1147 11.891 3.619 17.863 4.5189 5.7941 0.87522 11.869 1.238 17.815 1.1365 9.801-0.16806 19.785-1.248 28.904-5.051 9.2309-3.9288 16.868-10.918 22.711-18.973 1.0671-1.361 1.8947-2.9028 3.014-4.2181 1.221-1.2045 3.0258-1.3631 4.646-1.2227h8.3142c1.2895 5.6294 2.1035 11.365 3.5999 16.946 2.0468 5.8617 7.9981 10.138 14.232 10.053 4.9026 0.10065 9.8425-2.2059 12.7-6.2318 2.3021-3.0762 3.3361-7.0032 3.0471-10.819-0.011-26.468 0.043-52.937-0.052-79.404-0.1808-4.2156-1.2353-8.739-4.4189-11.729-3.1458-2.9856-7.6376-3.8943-11.841-3.9799-4.6035-0.13569-9.2096 0.0235-13.814-0.0471-15.603 0.0107-31.209-0.0556-46.81 0.0726-5.4744 0.5933-10.436 5.2697-10.737 10.877-0.3252 3.9975 1.4703 8.098 4.6995 10.498 2.426 1.9116 5.597 2.6406 8.6413 2.4279 12.602 2e-3 25.203 6e-3 37.805 8e-3 -0.015 7.9296 0.4998 16.013-1.5619 23.76-2.624 10.815-8.7109 20.917-17.623 27.687-7.6306 5.9963-17.001 9.6545-26.632 10.7-9.9537 1.248-20.32 0.40488-29.632-3.494-9.027-3.6901-16.978-9.9511-22.66-17.88-7.9492-10.757-12.556-23.683-14.669-36.814-1.8493-11.33-2.106-22.871-1.5053-34.318 0.7653-13.378 3.2279-26.881 9.1687-38.991 4.5025-9.2225 10.979-17.692 19.589-23.422 8.9207-6.0239 19.652-9.2218 30.4-9.3233 9.2264-0.18555 18.712 1.4549 26.776 6.1233 6.3913 3.676 11.671 9.0887 15.6 15.296 1.4062 2.1417 2.5455 4.4952 4.4343 6.2765 3.2582 3.3218 7.8626 5.5043 12.486 5.5745 6.0961 0.30616 12.14-2.8005 15.64-7.7647 0.7661-1.06 1.4148-2.2034 1.9469-3.3977 0.1249-0.26524 0.3957-0.93445 0.5459-1.3701 1.2002-3.2585 1.2798-6.832 0.5782-10.21-0.6933-3.6067-2.4658-6.9895-5.0689-9.5845-3.7713-4.2856-8.0693-8.0929-12.695-11.433-0.7321-0.52739-1.6941-1.2003-2.537-1.7565-6.611-4.4003-13.843-7.8547-21.396-10.304-1.0584-0.34098-2.3687-0.74196-3.5386-1.0639-5.0774-1.4056-10.269-2.3818-15.498-3.0168-1.1605-0.13732-2.5732-0.2909-3.8343-0.40432-1.4239-0.12454-2.8798-0.24136-4.2117-0.30516-1.5258-0.08703-2.9621-0.14723-4.5359-0.18198-1.8321-0.05172-3.6651-0.04088-5.4977-0.03582zm218.37 2.3416c-8.6846 0.06648-17.431 2.7021-24.385 7.9786-3.9747 2.9478-7.4036 6.646-9.9703 10.882-0.2022 0.33298-0.5813 0.98448-0.8366 1.4596-2.1405 3.941-3.3543 8.2872-4.8581 12.491-18.136 52.531-36.282 105.06-54.386 157.6-1.662 5.3878-1.0428 11.525 2.0789 16.275 2.9028 4.589 7.7867 7.9932 13.209 8.7219 5.0242 0.80052 10.532-0.42476 14.67-3.5232 3.0853-2.2806 5.5645-5.5373 6.7905-9.238 3.2384-10.449 6.5898-20.866 9.8725-31.303 0.6515-2.0602 1.3035-4.1203 1.9547-6.1806h93.483c4.0787 12.956 8.01 25.944 12.194 38.866 2.6602 6.6294 9.4636 11.278 16.572 11.568 5.5303 0.38979 11.349-1.7177 15.226-5.7797 4.6143-4.697 6.6484-11.868 4.8389-18.245-0.9467-3.7616-2.4341-7.2115-3.6165-10.914-17.965-52.01-35.897-104.03-53.911-156.03-0.5041-1.3249-1.2084-2.8688-1.9564-4.2223-2.7886-5.1091-6.815-9.5112-11.557-12.873-0.6344-0.44394-1.5139-1.0379-2.2761-1.497-6.7006-4.2163-14.678-6.1314-22.556-6.0437-0.1939 4.34e-4 -0.3879 8.57e-4 -0.5818 1e-3zm-487.99 2.4864c-6.0604 0.05213-12.125-0.07164-18.182 0.11263-4.1744 0.33231-8.6169 1.6485-11.36 5.0074-2.7744 3.3998-3.4206 7.9556-3.4379 12.211-0.0567 5.2997 0.0145 10.6-0.0216 15.9 6e-3 53.469-0.0192 106.94 0.0386 160.41 0.34727 8.9416 7.2954 17.118 16.044 18.958 3.1928 0.68426 6.4511 0.59328 9.697 0.41082 4.0494-0.33756 8.1302-1.1237 11.828-2.8545 3.4969-1.8709 6.108-5.0803 7.9512-8.5338 1.6598-3.1644 2.3522-6.7653 2.2321-10.323 3e-3 -19.321 2e-3 -38.643 2e-3 -57.964h37.249c12.216 23.566 24.386 47.157 36.676 70.684 3.6463 6.1025 11.05 9.6416 18.007 9.0977 7.4973-0.35907 14.56-5.4096 17.216-12.448 1.9725-4.9942 1.7536-10.8-0.6554-15.607-1.457-2.989-3.093-5.8862-4.5785-8.8616-8.1615-15.703-16.369-31.381-24.463-47.118-0.91053-2.167-0.33759-4.5555-0.53534-6.8198-0.0392-1.1612 0.81131-2.1703 1.894-2.5005 9.0721-4.2702 17.621-9.9735 24.188-17.628 5.8054-6.6334 10.007-14.641 12.175-23.185 2.2993-8.9903 2.5896-18.422 1.4854-27.61-0.9815-7.3743-3.1411-14.667-6.9364-21.099-0.2738-0.46336-0.7173-1.2038-1.0849-1.7642-4.7206-7.3894-11.401-13.452-19.077-17.662-11.18-6.2414-23.887-9.2889-36.577-10.337-2.2992-0.18302-4.5928-0.32628-6.829-0.3982-8.3812-0.16083-16.765-0.0447-25.147-0.07959-12.599 4.33e-4 -25.198 8.67e-4 -37.797 1e-3zm24.598 26.364c8.6644 0.0406 17.333-0.0829 25.994 0.15013 9.2849 0.47822 18.744 2.6011 26.609 7.7457 5.8637 3.8578 9.9931 10.042 11.809 16.78 2.0432 7.156 2.1895 14.738 1.2842 22.086-1.0122 7.1282-3.8348 14.262-9.1483 19.279-5.4026 5.1355-12.541 8.0124-19.721 9.6322-7.0429 1.536-14.305 1.6665-21.478 1.5188-8.386-2.1439-16.772-4.2865-25.158-6.4308v-59.255c-2.2678-1.1207-4.5247-2.2709-6.796-3.3901-1.4117-0.70376-2.8236-1.4073-4.2353-2.1109 4.1136-1.958 8.1305-4.1154 12.281-5.994 2.8529-3e-3 5.7057-8e-3 8.5586-0.0118zm457.73 7.7878h14.418c4.2089 16.157 8.3213 32.341 13.405 48.222 5.411 17.291 10.822 34.585 16.244 51.874h-75.222c6.6181-21.15 13.27-42.29 19.868-63.445 3.5512-12.153 6.6569-24.365 9.726-36.65h1.5611z" stroke="current" stroke-width="15.024"/></g>















</svg>
